<svg xmlns="http://www.w3.org/2000/svg" viewBox="0 0 96 96" id="e-learning"><g><path fill="#354174" d="M11.73,3c-3,0-5.4,2-5.4,4.5V40.22c0,2.49,2.42,4.51,5.4,4.51H74.45c3,0,5.41-2,5.41-4.51V7.53C79.86,5,77.45,3,74.45,3Z"></path><path fill="#3569ab" d="M14 9.17a1.54 1.54 0 00-1.55 1.55V23.4a1.27 1.27 0 002.17.9l13-13a1.27 1.27 0 00-.9-2.17zM59.09 38.25L73.38 24a1.23 1.23 0 00.35-.85V19.53a1.19 1.19 0 00-2-.84L53.82 36.56a1.2 1.2 0 00.84 2h3.58A1.23 1.23 0 0059.09 38.25zM73.73 10.72a1.56 1.56 0 00-1.56-1.56H40.27A8.92 8.92 0 0034 11.76L15.06 30.7A8.84 8.84 0 0012.46 37 1.55 1.55 0 0014 38.6H46.48a7.59 7.59 0 005.34-2.21l19.7-19.7a7.59 7.59 0 002.21-5.34zM72.17 38.6A1.56 1.56 0 0073.73 37V32.43a1.3 1.3 0 00-2.22-.92l-4.87 4.86a1.31 1.31 0 00.92 2.23z"></path><path fill="#e6e7e8" d="M79.86,39.32v8.35a5.4,5.4,0,0,1-5.41,5.4H11.73a5.4,5.4,0,0,1-5.4-5.4V39.32a5.41,5.41,0,0,0,5.4,5.41H74.45A5.41,5.41,0,0,0,79.86,39.32Z"></path><path fill="#c3c3c4" d="M74.45 44.73H68.51v8.34h5.94a5.4 5.4 0 005.41-5.4V39.32A5.41 5.41 0 0174.45 44.73zM15.4 44.73H11.73a5.41 5.41 0 01-5.4-5.41v8.35a5.4 5.4 0 005.4 5.4H15.4z"></path><rect width="11.38" height="8.92" x="37.4" y="53.07" fill="#c3c3c4"></rect><rect width="27.82" height="4.81" x="29.19" y="61.99" fill="#e6e7e8" rx="1.86"></rect><path fill="#fc654e" d="M43.09,38.1l1.53-.9a35,35,0,0,1,21.54-4.61V27.71a35,35,0,0,0-21.54,4.62l-1.53.89Z"></path><path fill="#fc8d67" d="M43.09,38.1l-1.53-.9A35,35,0,0,0,20,32.59V27.71a35,35,0,0,1,21.53,4.62l1.53.89Z"></path><path fill="#354174" d="M91.89,93.69C87.18,95.92,81.64,92,79.67,86.91s-.74-10.52,3.15-12.37c3.62-1.72,8.26.26,11,4.47C97.19,84.13,96.71,91.41,91.89,93.69Z"></path><path fill="#3a86ff" d="M92,82.85a11.76,11.76,0,0,1-7.82,4.45,4.86,4.86,0,0,1-5.44-4.47C78.24,75.16,85,71.27,91,75.94A5,5,0,0,1,92,82.85Z"></path><path fill="#354174" d="M90.21 80.62a1 1 0 00-1.36-.48L87 81l-3.24-6.83a6.09 6.09 0 00-1.84.88c4.42 9.34 2.91 6.13 3.23 6.82l-1.84.87a1 1 0 10.87 1.85L89.72 82A1 1 0 0090.21 80.62zM72.51 50.33h-1.7a1 1 0 010-2h1.7a1 1 0 010 2z"></path><path fill="#fff" d="M56.3,50.33h-17a1,1,0,1,1,0-2h17a1,1,0,0,1,0,2Z"></path><path fill="#354174" d="M66.42,87.43l.77,4.1A3.67,3.67,0,0,1,63.6,96H3.67A3.67,3.67,0,0,1,.08,91.53l.9-4.1Z"></path><path fill="#3a86ff" d="M62.83,91.89H4.56A3.67,3.67,0,0,1,1,87.43L3.43,76.31A3.67,3.67,0,0,1,7,73.42H60.38A3.68,3.68,0,0,1,64,76.31l2.45,11.12A3.67,3.67,0,0,1,62.83,91.89Z"></path><path fill="#1c4fd7" d="M62.83,91.89H51.61a3.68,3.68,0,0,0,3.6-4.46L52.75,76.31a3.67,3.67,0,0,0-3.58-2.89H60.38A3.67,3.67,0,0,1,64,76.31l2.44,11.12A3.66,3.66,0,0,1,62.83,91.89Z"></path><path fill="#53c2ff" d="M31.43,84.92H9.36a2.6,2.6,0,0,1-2.54-3.16l.57-2.61A2.61,2.61,0,0,1,9.94,77.1H30.85a2.6,2.6,0,0,1,2.54,2.05L34,81.76A2.6,2.6,0,0,1,31.43,84.92Z"></path><path fill="#fff" d="M10.26 78.85h-1a1 1 0 010-2h1a1 1 0 110 2zM15.58 78.85h-1a1 1 0 010-2h1a1 1 0 110 2zM20.9 78.85h-1a1 1 0 010-2h1a1 1 0 110 2zM26.22 78.85h-1a1 1 0 010-2h1a1 1 0 110 2zM31.54 78.85h-1a1 1 0 010-2h1a1 1 0 110 2zM36.87 78.85h-1a1 1 0 010-2h1a1 1 0 110 2zM42.19 78.85h-1a1 1 0 010-2h1a1 1 0 110 2zM47.51 78.85h-1a1 1 0 010-2h1a1 1 0 110 2zM52.83 78.85h-1a1 1 0 110-2h1a1 1 0 110 2zM58.15 78.85h-1a1 1 0 010-2h1a1 1 0 110 2zM6.91 83.86H6.12a1 1 0 010-2h.79a1 1 0 010 2zM11.85 83.86h-.78a1 1 0 110-2h.78a1 1 0 010 2zM16.79 83.86H16a1 1 0 010-2h.78a1 1 0 010 2zM21.73 83.86H21a1 1 0 010-2h.78a1 1 0 110 2zM26.68 83.86h-.79a1 1 0 010-2h.79a1 1 0 010 2zM31.62 83.86h-.79a1 1 0 010-2h.79a1 1 0 010 2zM36.56 83.86h-.78a1 1 0 110-2h.78a1 1 0 010 2zM41.5 83.86h-.78a1 1 0 010-2h.78a1 1 0 110 2zM46.45 83.86h-.79a1 1 0 010-2h.79a1 1 0 010 2zM51.39 83.86H50.6a1 1 0 010-2h.79a1 1 0 010 2zM56.33 83.86h-.79a1 1 0 010-2h.79a1 1 0 010 2zM61.27 83.86h-.78a1 1 0 010-2h.78a1 1 0 010 2zM7 88.51H6.24a1 1 0 010-2H7a1 1 0 110 2zM12.44 88.51h-.78a1 1 0 010-2h.78a1 1 0 110 2zM17.85 88.51h-.78a1 1 0 010-2h.78a1 1 0 110 2zM23.26 88.51h-.78a1 1 0 010-2h.78a1 1 0 110 2zM28.68 88.51h-.79a1 1 0 010-2h.79a1 1 0 010 2zM34.09 88.51h-.78a1 1 0 110-2h.78a1 1 0 010 2zM39.5 88.51h-.78a1 1 0 010-2h.78a1 1 0 110 2zM44.91 88.51h-.78a1 1 0 110-2h.78a1 1 0 110 2zM50.33 88.51h-.79a1 1 0 110-2h.79a1 1 0 110 2zM55.74 88.51H55a1 1 0 110-2h.78a1 1 0 010 2zM61.15 88.51h-.78a1 1 0 110-2h.78a1 1 0 110 2z"></path><path fill="#fec89a" d="M43.09,33.22l-1.53-.89A34.94,34.94,0,0,0,20,27.71V.81A35,35,0,0,1,41.56,5.42l1.53.9Z"></path><path fill="#feebbd" d="M36.61,25.57a39.24,39.24,0,0,0-10.79-2.1,1.82,1.82,0,0,1-1.7-1.83V6.58a1.82,1.82,0,0,1,1.94-1.82,30.86,30.86,0,0,1,12,3.38,1.8,1.8,0,0,1,1,1.6V23.86A1.81,1.81,0,0,1,36.61,25.57Z"></path><path fill="#fec89a" d="M43.09,33.22l1.53-.89a35,35,0,0,1,21.54-4.62V.81A35,35,0,0,0,44.62,5.42l-1.53.9Z"></path><path fill="#feebbd" d="M48.13,8.14a31,31,0,0,1,12-3.38,1.82,1.82,0,0,1,1.94,1.82V21.64a1.82,1.82,0,0,1-1.7,1.83,39.17,39.17,0,0,0-10.79,2.1,1.81,1.81,0,0,1-2.4-1.71V9.74A1.81,1.81,0,0,1,48.13,8.14Z"></path><path fill="#fc8d67" d="M47.68 10.44a1 1 0 01-.4-2A35.72 35.72 0 0161.57 5.57a1 1 0 11-.11 2C53.24 7.61 48.38 10.44 47.68 10.44zM47.68 17.5a1 1 0 01-.4-2 35.73 35.73 0 0114.29-2.9 1 1 0 010 2h-.12C53.25 14.68 48.38 17.5 47.68 17.5zM47.68 24.57a1 1 0 01-.4-2A36.26 36.26 0 0161.57 19.7a1 1 0 11-.12 2C53.25 21.74 48.38 24.57 47.68 24.57zM38.51 10.44c-.8 0-5.53-2.83-13.78-2.83a1 1 0 110-2A35.84 35.84 0 0138.91 8.48 1 1 0 0138.51 10.44zM38.51 17.5c-.8 0-5.54-2.83-13.89-2.82a1 1 0 01-1-1 1 1 0 011-1 36.23 36.23 0 0114.3 2.9A1 1 0 0138.51 17.5zM38.51 24.57c-.73 0-5.63-2.86-13.89-2.83a1 1 0 010-2 36.6 36.6 0 0114.3 2.91A1 1 0 0138.51 24.57z"></path></g></svg>